<?xml version="1.0" encoding="UTF-8"?>
<svg version="1.1" xmlns="http://www.w3.org/2000/svg" width="785" height="754">
<path d="M0 0 C1.31218002 0.13247635 2.62436005 0.2649527 3.9763031 0.40144348 C18.15461477 1.8637702 32.25252824 3.8488473 46.3515625 5.93359375 C47.70149803 6.13173628 49.05145358 6.32974252 50.40142822 6.52761841 C100.12204171 13.82775331 149.791493 22.57070186 198.33740234 35.69873047 C199.48731659 36.00632294 199.48731659 36.00632294 200.66046143 36.32012939 C202.07162867 36.69878301 203.48111882 37.0837762 204.8883667 37.47674561 C208.7814683 38.52123018 212.26274528 38.92829759 216.2890625 38.74609375 C216.6809375 37.50859375 217.0728125 36.27109375 217.4765625 34.99609375 C218.76581646 30.92476545 220.72478677 29.07870861 224.2890625 26.74609375 C235.73121393 23.52893711 252.29777701 22.67004433 263.33984375 27.67578125 C266.58066541 30.00788616 267.59580103 32.42979719 268.5390625 36.12109375 C270.01403043 41.50561522 273.29469964 43.09156662 277.87109375 45.91796875 C280.54021499 47.93597964 281.4685651 49.48746784 282.8515625 52.49609375 C284.13708863 55.19524113 284.74903608 56.45768185 287.41015625 57.87890625 C289.68910278 58.58990763 291.96922466 59.18525383 294.2890625 59.74609375 C298.23559635 61.4374654 299.78627303 63.4636355 302.1015625 66.93359375 C306.71205307 73.06121156 313.09966091 75.45178806 319.85107422 78.57714844 C333.17311385 84.96468356 346.09150509 92.41677751 358.2890625 100.74609375 C358.84964355 101.12411133 359.41022461 101.50212891 359.98779297 101.89160156 C369.70988389 108.47515089 378.61003063 115.84679874 387.2890625 123.74609375 C388.18367187 124.555625 389.07828125 125.36515625 390 126.19921875 C412.98960618 148.07282463 429.63584445 179.7410512 430.45019531 211.91113281 C430.47013213 213.44459574 430.48382337 214.97814903 430.4921875 216.51171875 C430.49788757 217.34459412 430.50358765 218.17746948 430.50946045 219.0355835 C430.51886959 220.79714711 430.52542809 222.558728 430.52929688 224.3203125 C430.53888315 226.94695187 430.56989465 229.57276651 430.6015625 232.19921875 C430.83361392 269.21468582 417.81708774 304.76657174 396.2890625 334.74609375 C395.77150391 335.47119141 395.25394531 336.19628906 394.72070312 336.94335938 C382.52355549 353.96423771 382.52355549 353.96423771 375.44921875 361.4453125 C373.69749487 363.31107265 372.0465528 365.20764539 370.390625 367.15625 C364.79163246 373.58189929 358.64577423 379.49430597 352.6015625 385.49609375 C351.3663019 386.72632703 350.13127411 387.95679411 348.89648438 389.1875 C346.63595412 391.43992238 344.37412124 393.69101747 342.1105957 395.94042969 C339.83296164 398.20525366 337.55967815 400.47424319 335.2890625 402.74609375 C337.01768776 402.73943192 337.01768776 402.73943192 338.78123474 402.7326355 C349.71002242 402.69186545 360.63879442 402.66200278 371.56764126 402.64246941 C377.18453104 402.63208913 382.80135879 402.61803672 388.41821289 402.59521484 C393.85176759 402.57327912 399.28526311 402.561482 404.71885872 402.55633926 C406.77859489 402.55268034 408.8383283 402.54553699 410.89803886 402.53463364 C446.7086248 402.35282644 446.7086248 402.35282644 455.2890625 408.74609375 C463.49975146 418.17965128 461.57821421 437.06829671 461.51611328 448.79101562 C461.51554717 450.32044975 461.5158696 451.84988442 461.51699829 453.37931824 C461.51756503 457.47539691 461.50592257 461.57135507 461.49185038 465.66740608 C461.47922802 469.96881603 461.47816355 474.27022966 461.47579956 478.57165527 C461.46961823 486.69202997 461.45325342 494.8123499 461.43310058 502.93270063 C461.41063651 512.18802691 461.3997219 521.443356 461.38970971 530.69870281 C461.36888367 549.71453067 461.33377381 568.73030779 461.2890625 587.74609375 C462.88778198 587.73412964 462.88778198 587.73412964 464.51879883 587.72192383 C465.94872963 587.71546948 467.37866134 587.70921386 468.80859375 587.703125 C469.50730591 587.6973645 470.20601807 587.691604 470.92590332 587.68566895 C486.94133119 587.63476756 502.25585719 590.49553594 514.2890625 601.74609375 C514.84078125 602.2565625 515.3925 602.76703125 515.9609375 603.29296875 C528.86234405 616.72639207 528.99836229 635.89847724 528.7421875 653.30859375 C528.45324832 662.70174518 527.07094514 671.92385162 525.5390625 681.18359375 C525.41281494 681.96862274 525.28656738 682.75365173 525.15649414 683.56246948 C524.78763088 685.81372278 524.39523517 688.05932662 523.9921875 690.3046875 C523.76176758 691.59689209 523.53134766 692.88909668 523.29394531 694.22045898 C521.7700085 699.56719648 520.05455851 702.75369483 515.13842773 705.51708984 C510.77460825 707.09896988 506.28384678 707.79026424 501.69921875 708.41015625 C500.78447281 708.53629303 499.86972687 708.66242981 498.92726135 708.79238892 C489.76151512 709.96147299 480.66254866 710.20224106 471.43188477 710.13720703 C468.72296013 710.12107229 466.01552189 710.13720947 463.30664062 710.15625 C451.77750545 710.16899498 440.74281951 709.06342777 429.38755798 707.10658264 C422.52552094 705.62653029 422.52552094 705.62653029 416.1015625 707.55859375 C405.19693645 712.92990509 392.58883086 712.05953569 380.72631836 712.00683594 C377.86094945 711.99612883 374.99620913 712.00677346 372.13085938 712.01953125 C344.32580411 712.04212572 344.32580411 712.04212572 337.2890625 705.74609375 C329.47646133 697.6544711 331.11268291 682.38471761 330.97265625 671.9609375 C330.95187515 670.66410538 330.93109406 669.36727325 330.90968323 668.03114319 C330.85496431 664.61346284 330.80533774 661.19572757 330.75683594 657.7779541 C330.70625011 654.27835304 330.6507593 650.77882996 330.59570312 647.27929688 C330.48873714 640.43496364 330.3871603 633.59055969 330.2890625 626.74609375 C330.23829559 627.4888707 330.18752869 628.23164764 330.13522339 628.99693298 C329.89876446 632.40209068 329.65258089 635.80648028 329.40625 639.2109375 C329.28672974 640.96343811 329.28672974 640.96343811 329.16479492 642.75134277 C327.76453266 661.80227931 321.78995661 680.4962123 307.5 693.91015625 C287.15264319 710.80637127 261.48155627 713.96390182 235.9765625 713.99609375 C234.92432495 713.99860138 234.92432495 713.99860138 233.85083008 714.00115967 C220.43699502 714.00306743 207.16163449 713.17404433 194.1640625 709.64453125 C187.85707465 708.1822256 182.64108256 708.76879239 176.39453125 710.2265625 C166.2826082 712.32537755 156.14710646 712.16214424 145.86108398 712.08227539 C142.59659266 712.05855764 139.33291595 712.06175344 136.06835938 712.06835938 C107.08452401 712.03086001 107.08452401 712.03086001 98.83984375 706.3125 C97.05160546 704.5062442 96.34858148 702.90982644 95.4140625 700.55859375 C94.28228162 697.91610975 93.78819336 696.97702132 91.14453125 695.75390625 C84.21463977 694.19973704 77.97548648 694.90227334 71.12583923 696.47015381 C59.11477376 699.08986285 47.42115441 699.14974223 35.16796875 699.07421875 C32.97037384 699.07115277 30.77277698 699.06928304 28.57518005 699.06854248 C24.00064492 699.06397229 19.42628906 699.04966939 14.85180664 699.02734375 C9.00597637 698.99894659 3.16028577 698.9881162 -2.68560696 698.98366165 C-8.29693275 698.97849647 -13.90822404 698.96397671 -19.51953125 698.94921875 C-20.57859617 698.94733803 -21.63766109 698.94545731 -22.72881889 698.94351959 C-25.74040223 698.9366037 -28.75187902 698.9229495 -31.76342773 698.90722656 C-32.64100739 698.9061087 -33.51858704 698.90499084 -34.42276001 698.90383911 C-39.26824399 698.87053036 -43.99349107 698.57949278 -48.80198765 697.9721489 C-51.27820321 697.67891895 -53.71863475 697.61340146 -56.2109375 697.62109375 C-57.46390625 697.61722656 -57.46390625 697.61722656 -58.7421875 697.61328125 C-61.17702071 697.722208 -63.51448257 697.94949894 -65.9296875 698.24609375 C-70.86756013 698.82067135 -75.74411005 698.89401757 -80.7109375 698.87109375 C-81.54882812 698.87496094 -82.38671875 698.87882813 -83.25 698.8828125 C-88.11007912 698.87528916 -92.82574576 698.56545649 -97.64794922 697.97314453 C-100.5283433 697.65613075 -103.37726377 697.61384425 -106.2734375 697.62109375 C-107.82224609 697.61722656 -107.82224609 697.61722656 -109.40234375 697.61328125 C-112.76704686 697.69438428 -112.76704686 697.69438428 -116.29589844 698.24389648 C-121.08830167 698.85691533 -125.83384774 698.90796188 -130.66015625 698.9140625 C-131.59463089 698.9173909 -132.52910553 698.9207193 -133.49189758 698.92414856 C-135.4609834 698.92918695 -137.43007767 698.93155785 -139.39916992 698.93139648 C-142.37238056 698.93357466 -145.34521459 698.9517408 -148.31835938 698.97070312 C-176.65842898 699.05623295 -176.65842898 699.05623295 -183.7109375 692.74609375 C-190.9979835 685.45904775 -189.82281732 670.56419857 -189.84646606 661.06791687 C-189.84342972 659.25660027 -189.84342972 659.25660027 -189.84033203 657.40869141 C-189.84208435 656.10977463 -189.84383667 654.81085785 -189.84564209 653.47257996 C-189.85016766 649.93734553 -189.84844684 646.40214057 -189.845263 642.86690569 C-189.84271297 639.14762836 -189.84508436 635.42835337 -189.84664917 631.70907593 C-189.84846364 625.46359815 -189.84608402 619.21813223 -189.84130859 612.97265625 C-189.83587215 605.78018924 -189.83762707 598.58775061 -189.843135 591.3952843 C-189.84769246 585.19282084 -189.8483037 578.99036587 -189.84569633 572.78790128 C-189.84414738 569.09547993 -189.84390142 565.40307186 -189.84723282 561.7106514 C-189.85069325 557.58784594 -189.84587898 553.46508834 -189.84033203 549.34228516 C-189.84235626 548.13878922 -189.84438049 546.93529327 -189.84646606 545.69532776 C-189.83029142 539.16796224 -189.55490917 532.73688795 -188.94054031 526.23752213 C-188.66832329 523.28368538 -188.55556556 520.344272 -188.5 517.37890625 C-187.81915731 489.96253336 -187.81915731 489.96253336 -183.7109375 481.74609375 C-183.77373318 480.15907575 -183.90896875 478.57446364 -184.0859375 476.99609375 C-184.17617187 476.155625 -184.26640625 475.31515625 -184.359375 474.44921875 C-184.59642657 472.62655557 -184.8839743 470.80984551 -185.21801758 469.00244141 C-188.07928316 450.1002322 -187.98459033 426.0969069 -176.60546875 410.0703125 C-169.03048851 400.7772955 -158.74347969 396.00536145 -147.7109375 391.74609375 C-147.69111816 391.13725342 -147.67129883 390.52841309 -147.65087891 389.90112305 C-146.53077872 357.19234097 -146.53077872 357.19234097 -135.3359375 343.99609375 C-104.42404254 306.51876661 -104.42404254 306.51876661 -92.7109375 261.74609375 C-93.11272161 258.42079241 -93.62146618 255.1161266 -94.1484375 251.80859375 C-101.18475484 207.57385853 -97.38063817 151.99116357 -70.3984375 114.37890625 C-68.07980902 111.4379988 -65.80024667 108.65901588 -62.92578125 106.25 C-62.52488281 105.75371094 -62.12398438 105.25742188 -61.7109375 104.74609375 C-61.98540879 102.27585216 -62.38009814 101.06810778 -64.17529297 99.32080078 C-64.80322754 98.88622559 -65.43116211 98.45165039 -66.078125 98.00390625 C-66.7889624 97.5025415 -67.4997998 97.00117676 -68.23217773 96.48461914 C-69.00891846 95.95215576 -69.78565918 95.41969238 -70.5859375 94.87109375 C-72.24161794 93.70677013 -73.89654219 92.54137059 -75.55078125 91.375 C-76.40655762 90.77574707 -77.26233398 90.17649414 -78.14404297 89.55908203 C-82.18957479 86.70173761 -86.16894793 83.75688656 -90.1484375 80.80859375 C-91.72509763 79.64300894 -93.30192182 78.47764601 -94.87890625 77.3125 C-95.66700684 76.73000488 -96.45510742 76.14750977 -97.26708984 75.54736328 C-99.80228969 73.67876144 -102.3437318 71.81892553 -104.88671875 69.9609375 C-105.7362915 69.33888428 -106.58586426 68.71683105 -107.46118164 68.07592773 C-109.07465001 66.8948607 -110.68961594 65.71583551 -112.30639648 64.53930664 C-126.80840583 53.90661417 -126.80840583 53.90661417 -128.7109375 42.74609375 C-128.86433594 41.87855469 -129.01773438 41.01101562 -129.17578125 40.1171875 C-130.35180125 31.25078951 -129.94684886 20.72017706 -126.1484375 12.49609375 C-121.60477479 7.36991017 -115.20074658 6.43076684 -108.54296875 5.87109375 C-89.08811109 5.01239658 -74.15675987 5.89947932 -58.18945312 17.83618164 C-56.74927074 18.88274017 -55.23346024 19.82341581 -53.7109375 20.74609375 C-52.7209375 20.41609375 -51.7309375 20.08609375 -50.7109375 19.74609375 C-49.6367234 16.89128365 -49.6367234 16.89128365 -48.8359375 13.49609375 C-47.28270207 8.10406353 -46.30422239 4.99500258 -41.7109375 1.74609375 C-29.91539608 -4.46208594 -12.69663005 -1.28379285 0 0 Z M61.2890625 64.74609375 C61.3597998 65.46007324 61.43053711 66.17405273 61.50341797 66.90966797 C62.00638162 72.36978483 62.3478075 77.76926054 62.359375 83.25390625 C62.3696875 84.34316406 62.38 85.43242188 62.390625 86.5546875 C62.40630492 88.77339585 62.39832498 90.99239224 62.3671875 93.2109375 C62.53327658 103.21187267 66.51836082 108.94517555 73.2890625 115.99609375 C76.73039269 118.79608513 80.67192272 120.11545688 84.7890625 121.62109375 C91.47161912 124.07377308 95.23540062 126.92603172 99.2890625 132.74609375 C100.25243348 133.94644369 101.23142911 135.13444165 102.2265625 136.30859375 C102.70609375 136.87835938 103.185625 137.448125 103.6796875 138.03515625 C105.48147082 139.95064435 107.43056098 141.53335165 109.4765625 143.18359375 C114.95115238 147.86415914 116.49734562 153.27941443 117.1640625 160.36328125 C118.51863196 186.1847615 118.51863196 186.1847615 111.2890625 194.74609375 C107.8984375 196.21484375 107.8984375 196.21484375 104.0390625 197.24609375 C98.59258796 198.82390435 94.58108205 200.65038022 90.25390625 204.32421875 C80.26121216 211.55551228 67.37674584 211.01776463 55.6640625 211.05859375 C54.48121674 211.06401688 54.48121674 211.06401688 53.2744751 211.06954956 C42.55092219 211.08936194 32.49545734 210.56649828 22.09375 207.71875 C17.82729677 206.62804481 13.66640431 206.12445273 9.2890625 205.74609375 C7.18211116 213.51081366 6.48275207 225.3955015 10.2890625 232.74609375 C13.33577822 236.11924329 16.74352345 238.91382761 20.2890625 241.74609375 C22.98192163 244.05014434 25.64239697 246.38916845 28.2890625 248.74609375 C28.84980469 249.23980469 29.41054688 249.73351562 29.98828125 250.2421875 C54.58090273 273.22969616 63.29382454 309.52473908 64.3972168 341.92163086 C64.45810544 345.13481136 64.4784736 348.34484754 64.4765625 351.55859375 C64.47720703 352.70626221 64.47785156 353.85393066 64.47851562 355.03637695 C64.4083693 366.66392689 63.48499762 378.1859177 62.2890625 389.74609375 C63.6090625 389.74609375 64.9290625 389.74609375 66.2890625 389.74609375 C66.30364502 388.79581299 66.31822754 387.84553223 66.33325195 386.86645508 C66.87430884 354.16031971 69.25934691 323.46143804 84.2890625 293.74609375 C84.63839844 293.05290039 84.98773438 292.35970703 85.34765625 291.64550781 C98.05374293 266.87329304 118.32301999 245.59538555 142.5859375 231.8828125 C153.75033483 225.56134969 156.92819698 214.62115191 160.2890625 202.74609375 C163.45988939 189.99978961 161.63955896 176.34400684 155.3515625 164.93359375 C151.797498 159.59870802 147.80233529 157.58969081 142.03515625 155.0625 C136.86881427 152.58588941 135.01000042 149.2947752 132.6015625 144.12109375 C128.71535953 132.35145047 127.93996502 118.96279784 131.3515625 106.93359375 C134.00810569 102.56315173 136.54756563 102.04394873 141.2890625 100.74609375 C142.63164178 100.20603366 143.96599426 99.6448313 145.2890625 99.05859375 C146.2790625 98.62546875 147.2690625 98.19234375 148.2890625 97.74609375 C148.5383982 96.14493799 148.76284898 94.53989216 148.9765625 92.93359375 C149.16798828 91.59361328 149.16798828 91.59361328 149.36328125 90.2265625 C149.5314446 87.7483646 149.5314446 87.7483646 148.09765625 86.19677734 C145.88255922 84.4200351 144.00978969 83.82894148 141.27734375 83.0546875 C140.22844971 82.75449707 139.17955566 82.45430664 138.09887695 82.14501953 C136.94476318 81.82774902 135.79064941 81.51047852 134.6015625 81.18359375 C133.39653076 80.84569824 132.19149902 80.50780273 130.94995117 80.15966797 C116.35424364 76.10242638 101.63990041 72.47861116 86.93359375 68.84765625 C86.19387329 68.66462448 85.45415283 68.48159271 84.6920166 68.29301453 C82.55952723 67.76936528 80.42511819 67.25499216 78.2890625 66.74609375 C77.50437592 66.55778992 76.71968933 66.36948608 75.91122437 66.17547607 C74.7344664 65.90178192 74.7344664 65.90178192 73.53393555 65.62255859 C72.82955856 65.45734711 72.12518158 65.29213562 71.39945984 65.12191772 C67.99869749 64.51630285 64.7346997 64.62079785 61.2890625 64.74609375 Z M309.2890625 171.74609375 C309.85094353 176.72552215 312.16626888 180.3922343 314.6640625 184.62109375 C324.89398888 202.07796812 326.9842329 221.96799254 322.2890625 241.74609375 C319.97595125 247.37611925 316.7646834 250.95460074 311.2890625 253.74609375 C305.27358627 255.53696072 299.66870528 256.1094941 293.4140625 256.30859375 C291.72902046 256.3684102 290.04410761 256.43202424 288.359375 256.5 C287.62477051 256.52392822 286.89016602 256.54785645 286.13330078 256.57250977 C284.19416229 256.64294777 284.19416229 256.64294777 282.2890625 257.74609375 C282.27447998 258.4510498 282.25989746 259.15600586 282.24487305 259.88232422 C282.16962053 263.12908489 282.07321876 266.37490251 281.9765625 269.62109375 C281.95400391 270.7296875 281.93144531 271.83828125 281.90820312 272.98046875 C281.64389057 281.15012954 280.96442285 291.33842883 275.2890625 297.74609375 C268.71199362 301.77497888 262.75991054 303.76306565 255.05859375 304.02734375 C253.60743164 304.08341797 253.60743164 304.08341797 252.12695312 304.140625 C250.09832148 304.21134554 248.0696754 304.28165336 246.04101562 304.3515625 C244.5956543 304.40763672 244.5956543 304.40763672 243.12109375 304.46484375 C242.24171143 304.49513672 241.3623291 304.52542969 240.45629883 304.55664062 C238.24210493 304.61639605 238.24210493 304.61639605 236.2890625 305.74609375 C235.68611449 320.68474975 235.68611449 320.68474975 240.2890625 334.74609375 C240.74796875 335.65617188 241.206875 336.56625 241.6796875 337.50390625 C244.56336884 342.95254626 247.73664639 348.2236614 250.9921875 353.45703125 C255.51364748 361.43768048 255.51528556 369.66840918 255.8515625 378.62109375 C255.89474609 379.69101562 255.93792969 380.7609375 255.98242188 381.86328125 C256.08799067 384.49077129 256.19010041 387.11834797 256.2890625 389.74609375 C261.11709982 390.704098 265.70495018 390.89782685 270.6015625 390.87109375 C271.32923828 390.87496094 272.05691406 390.87882813 272.80664062 390.8828125 C276.34082857 391.1996219 276.34082857 391.1996219 279.2890625 389.74609375 C279.58253385 387.87336649 279.87169219 385.99983558 280.13623047 384.12280273 C282.06943354 370.97729923 287.74176721 363.25879984 296.05395508 353.18237305 C307.539782 339.22710142 317.31400261 324.41821172 326.2890625 308.74609375 C326.67433105 308.08544922 327.05959961 307.42480469 327.45654297 306.74414062 C341.49466546 282.56984549 352.25832363 252.62269981 344.88867188 224.71826172 C342.98986492 218.47291865 340.15634141 212.59374979 337.2890625 206.74609375 C336.8146875 205.75738281 336.3403125 204.76867187 335.8515625 203.75 C329.85899765 192.02023529 320.79593319 180.86903313 311.2890625 171.74609375 C310.6290625 171.74609375 309.9690625 171.74609375 309.2890625 171.74609375 Z M-23.7109375 340.74609375 C-24.29359375 341.82503906 -24.87625 342.90398437 -25.4765625 344.015625 C-33.37280911 358.50487008 -41.79171383 372.74124073 -51.6015625 386.03125 C-52.89199482 387.6855674 -52.89199482 387.6855674 -52.7109375 389.74609375 C-42.4809375 389.74609375 -32.2509375 389.74609375 -21.7109375 389.74609375 C-21.39887796 385.1606238 -21.09299824 380.57549084 -20.80151367 375.98876953 C-20.70106897 374.4351608 -20.59733767 372.88176033 -20.48999023 371.32861328 C-19.80147955 361.32742995 -19.67705752 351.74394384 -20.7109375 341.74609375 C-21.7009375 341.41609375 -22.6909375 341.08609375 -23.7109375 340.74609375 Z M153.2890625 359.74609375 C151.27324172 365.8190728 150.63775252 371.76163067 150.1015625 378.12109375 C150.00681641 379.13042969 149.91207031 380.13976562 149.81445312 381.1796875 C149.46441617 384.95814446 149.46441617 384.95814446 149.2890625 388.74609375 C150.47759105 390.16384213 150.47759105 390.16384213 153.88671875 389.84375 C155.37503117 389.83707595 156.86332682 389.82511558 158.3515625 389.80859375 C159.11017578 389.80408203 159.86878906 389.79957031 160.65039062 389.79492188 C162.52998121 389.78310055 164.40953149 389.76516453 166.2890625 389.74609375 C164.58590221 384.50887585 162.6982935 379.34810354 160.7890625 374.18359375 C160.48097656 373.34634766 160.17289062 372.50910156 159.85546875 371.64648438 C158.38389752 367.65808425 156.89862785 363.68148104 155.2890625 359.74609375 C154.6290625 359.74609375 153.9690625 359.74609375 153.2890625 359.74609375 Z M234.2890625 560.74609375 C234.2890625 579.55609375 234.2890625 598.36609375 234.2890625 617.74609375 C234.9490625 617.74609375 235.6090625 617.74609375 236.2890625 617.74609375 C236.2890625 598.93609375 236.2890625 580.12609375 236.2890625 560.74609375 C235.6290625 560.74609375 234.9690625 560.74609375 234.2890625 560.74609375 Z " fill="#000000" transform="translate(226.7109375,39.25390625)"/>
<path d="M0 0 C9.33692476 -1.19914401 17.58273548 -1.89475846 25.45092773 3.93847656 C28.29245119 6.2772403 31.07220539 8.67591201 33.82128906 11.12255859 C37.50054682 14.29305301 41.44047886 17.09516362 45.375 19.9375 C46.95782898 21.09787096 48.5398551 22.25933783 50.12109375 23.421875 C50.91499512 24.00388672 51.70889648 24.58589844 52.52685547 25.18554688 C56.83516834 28.34639399 61.13598189 31.51741601 65.4375 34.6875 C66.23655762 35.27587646 67.03561523 35.86425293 67.85888672 36.47045898 C68.60541504 37.02032471 69.35194336 37.57019043 70.12109375 38.13671875 C70.7752124 38.61842529 71.42933105 39.10013184 72.10327148 39.59643555 C74.07533622 41.05574822 76.0389098 42.52598151 78 44 C78.4125 43.35933594 78.825 42.71867187 79.25 42.05859375 C83.21188647 36.12460754 87.17332529 31.1682284 93 27 C93.60714844 26.56558594 94.21429688 26.13117188 94.83984375 25.68359375 C102.44430798 21.36184873 112.55900994 21.94201165 121 23 C124.88902497 24.08241335 127.7747665 25.59784121 131 28 C131.71285156 28.50789063 132.42570313 29.01578125 133.16015625 29.5390625 C139.23365098 34.32974432 143.55272673 40.65818018 146 48 C147.24848363 59.32980641 146.81397855 69.45723847 140 79 C138.41286159 80.92753244 136.93388182 82.40739144 135 84 C136.35814777 88.0744433 139.1308426 89.42021951 142.5625 91.6875 C143.17802734 92.10322266 143.79355469 92.51894531 144.42773438 92.94726562 C145.94706671 93.97193162 147.47292657 94.98690678 149 96 C149.33 95.01 149.66 94.02 150 93 C151.32 93 152.64 93 154 93 C153.67 94.98 153.34 96.96 153 99 C153.80824219 99.60328125 154.61648438 100.2065625 155.44921875 100.828125 C156.52867842 101.6353731 157.60810367 102.44266722 158.6875 103.25 C159.74324219 104.03890625 160.79898438 104.8278125 161.88671875 105.640625 C163.84372279 107.12372467 165.76205456 108.66082642 167.6171875 110.26953125 C170.19718568 112.14320206 171.31653507 112.43193678 174.4375 112.4375 C179.32997238 112.8113434 181.62774784 114.31404997 185 118 C185.57344903 119.23574228 186.11340521 120.48739414 186.625 121.75 C189.34605482 127.9342155 195.62810928 131.28599991 201 135 C202 136 202 136 202.25 138.875 C202 142 202 142 200.8125 143.875 C198.28398588 145.44442256 196.9353029 145.48921715 194 145 C191.1875 143 191.1875 143 189 141 C188.62488281 141.60328125 188.24976563 142.2065625 187.86328125 142.828125 C183.74467617 149.26020346 180.04983371 153.93161999 172.52734375 156.453125 C148.44419712 161.66431592 122.00214225 147.18285685 101 137 C100.87367188 137.71671875 100.74734375 138.4334375 100.6171875 139.171875 C100.00101515 141.9953483 99.14418061 144.54798629 98.125 147.25 C97.76921875 148.21550781 97.4134375 149.18101562 97.046875 150.17578125 C96.41421893 151.88253625 95.779435 153.58850751 95.140625 155.29296875 C89.34121892 171.53722354 88.70610627 191.26459956 93.18359375 207.9296875 C94 211 94 211 94.41015625 214.1953125 C95.13037487 219.02501385 95.82730378 221.97941822 99.58984375 225.25390625 C101.2273043 226.33165301 102.86630082 227.40812051 104.53564453 228.43579102 C126.83643625 242.25225356 139.39817998 267.05504241 145.97265625 291.63671875 C150.19262872 311.04859213 152.4187941 342.33334914 142 360 C140.24609375 361.86328125 140.24609375 361.86328125 138.4375 363.3125 C137.83808594 363.80363281 137.23867188 364.29476563 136.62109375 364.80078125 C132.24654393 368.03689401 127.23371703 367.53299523 122 367 C117.54853749 364.81473658 114.81114855 362.0605479 112 358 C111.00217266 355.00651799 110.86609447 353.00084177 110.875 349.875 C110.87242187 348.98554688 110.86984375 348.09609375 110.8671875 347.1796875 C111 344 111 344 111.49609375 340.10546875 C112.21714051 333.92617558 112.18603753 327.72859937 112.18530273 321.51586914 C112.18749936 319.43810832 112.20574598 317.36087126 112.22460938 315.28320312 C112.25358673 308.54142465 112.08168387 302.44507106 110 296 C109.71640625 295.00355469 109.4328125 294.00710938 109.140625 292.98046875 C103.83607662 276.34559116 94.81547202 263.47177186 80 254 C79.34 253.67 78.68 253.34 78 253 C77.773125 254.2375 77.54625 255.475 77.3125 256.75 C69.3543375 292.45756682 39.66929013 340.58167085 12 365 C7.32430118 367.93338579 2.3357236 367.59033538 -3 367 C-8.26329625 365.45139514 -11.48225906 361.9895829 -14.109375 357.26953125 C-15.75589033 353.07380578 -15.93364843 349.39852148 -15 345 C-12.97550611 340.4258297 -9.6432021 336.78346424 -6.4921875 332.9453125 C12.55835198 309.69284078 28.54651322 283.81389473 40 256 C40.29052246 255.29633301 40.58104492 254.59266602 40.88037109 253.86767578 C44.92771394 243.88326471 45.11104788 239.00654909 41.625 228.8125 C29.33292959 190.31247201 35.30442291 147.10885521 53.5 111.5 C53.92611572 110.65800049 54.35223145 109.81600098 54.79125977 108.94848633 C58.47240201 102.11681073 64.10546063 94.07676602 71.765625 91.40625 C80.45326033 89.82667994 89.12161426 89.81942637 96.8515625 94.390625 C102.0841696 98.31032341 105.56917574 102.42655363 107.6875 108.625 C109.83769594 113.96373436 113.69415692 115.48742879 118.7734375 117.73046875 C122.63599998 119.25024212 126.50537005 120.71748512 130.4296875 122.0703125 C132.80443688 122.9292644 135.03415846 123.9154758 137.3125 125 C145.43045645 128.70061799 154.17236655 130.8881225 163 132 C162.67 131.34 162.34 130.68 162 130 C162.03480469 129.31808594 162.06960938 128.63617188 162.10546875 127.93359375 C162.20400987 124.93512828 162.00025006 122.84686554 161 120 C156.22069376 115.16232055 150.51682416 111.10074401 144 109 C141.75759218 109.28739925 141.75759218 109.28739925 140 110 C140 106 140 106 141 104 C140.48308594 103.77699219 139.96617187 103.55398437 139.43359375 103.32421875 C137.34587323 102.18820389 135.60873252 101.01068168 133.72265625 99.58203125 C133.12646484 99.13279297 132.53027344 98.68355469 131.91601562 98.22070312 C130.67713528 97.27946737 129.44533247 96.32884485 128.22070312 95.36914062 C124.69064917 92.653889 124.69064917 92.653889 120.4140625 92.18359375 C119.61742187 92.45300781 118.82078125 92.72242188 118 93 C107.43404693 93.77712809 98.22518891 92.60038259 89.875 85.71484375 C82.65865621 79.114896 76.89643294 71.49325992 75.6953125 61.453125 C75.6875 59.25 75.6875 59.25 76 56 C75.29230469 55.75894531 74.58460938 55.51789063 73.85546875 55.26953125 C70.55178464 53.80072504 68.138392 51.94451962 65.3125 49.6875 C60.03237385 45.52768022 54.65199491 41.53922559 49.1875 37.625 C43.40923746 33.47926225 37.67507458 29.28594126 32 25 C26.17102743 20.6020222 20.29333231 16.27703297 14.375 12 C13.62863281 11.45988281 12.88226563 10.91976562 12.11328125 10.36328125 C8.94354924 8.07946345 5.77598641 5.84278848 2.4765625 3.75 C1.65929687 3.1725 0.84203125 2.595 0 2 C0 1.34 0 0.68 0 0 Z " fill="#FBFBFB" transform="translate(119,55)"/>
<path d="M0 0 C0.99 0 1.98 0 3 0 C3.20157715 0.5347998 3.4031543 1.06959961 3.61083984 1.62060547 C4.52666383 4.04088471 5.45072122 6.45793764 6.375 8.875 C6.69210937 9.71675781 7.00921875 10.55851562 7.3359375 11.42578125 C7.6453125 12.23144531 7.9546875 13.03710938 8.2734375 13.8671875 C8.69761963 14.98262939 8.69761963 14.98262939 9.13037109 16.12060547 C9.95391086 18.18377318 9.95391086 18.18377318 12 20 C12.35086369 21.99699919 12.68075909 23.99770223 13 26 C13.78510669 28.45345841 14.6204861 30.89128006 15.5 33.3125 C15.9434375 34.54613281 16.386875 35.77976563 16.84375 37.05078125 C17.71270621 39.84611424 17.71270621 39.84611424 19 41 C20.75623999 40.99577319 22.51281456 40.98439486 24.26831055 40.93310547 C37.92814591 40.56720329 45.88351664 43.88845298 56.33984375 52.61621094 C57.93108506 53.94255737 59.54056293 55.24268516 61.15625 56.5390625 C76.06575803 68.65086834 88.89073949 82.34468366 100 98 C100.45600586 98.6379248 100.91201172 99.27584961 101.38183594 99.93310547 C106.39923912 107.01313692 110.93093621 114.34095623 115.125 121.9375 C115.5159082 122.62328125 115.90681641 123.3090625 116.30957031 124.015625 C118.9277819 128.92328276 119.47889267 132.44248012 119 138 C117.70727212 141.06172394 116.41968278 142.63118786 113.9375 144.8125 C109.71779185 146.51833947 105.45985293 147.05921507 101 146 C96.06810672 142.15034035 93.68216336 137.06721842 90.875 131.625 C82.75203747 116.4054969 72.31474484 102.14617125 60 90 C57.83515377 116.57369625 57.83515377 116.57369625 64.18798828 142.078125 C65.37374856 144.88459069 66.27725531 147.76981177 67.21875 150.66552734 C68.02193168 153.06553459 68.89465036 155.42945397 69.7890625 157.796875 C77.06448919 177.26339974 77.06448919 177.26339974 76 186 C73.95109513 190.07452674 72.26959067 192.23647342 68 194 C63.36738345 194.69068101 60.10152075 194.67966174 56.0625 192.1875 C49.92487058 185.67789304 47.81384352 175.74881781 47 167 C46.34 167 45.68 167 45 167 C44.649375 168.19625 44.29875 169.3925 43.9375 170.625 C42.53565072 174.89062709 40.64943071 178.71516622 38.5625 182.6875 C27.3053967 204.39720681 25.02888525 232.52786886 32.30273438 255.82055664 C35.87893278 266.24533866 40.91467374 275.99549647 47.87109375 284.58203125 C50.8250073 288.2923102 50.44856012 292.30884631 50.41015625 296.87890625 C49.76395842 301.796164 47.59279613 304.6969455 44 308 C39.04256258 311.60540903 33.92263086 311.78526895 28 311 C15.93903238 306.76808154 9.25867678 291.00655235 4.00488281 280.14501953 C-8.1646683 254.16793594 -10.69939197 224.91413322 -4 197 C-26.33454331 210.68242293 -44.86131445 231.32152429 -52 257 C-53.13618689 261.97977409 -54.11350899 266.96902234 -55 272 C-55.2784375 273.40185547 -55.2784375 273.40185547 -55.5625 274.83203125 C-55.93009619 277.49382148 -56.10073287 280.00048674 -56.17578125 282.6796875 C-56.19962891 283.52660156 -56.22347656 284.37351562 -56.24804688 285.24609375 C-56.29081809 286.99064101 -56.32217587 288.73550756 -56.34179688 290.48046875 C-56.56444847 297.30499888 -57.99990891 302.79277567 -62.75390625 307.875 C-68.35303607 311.35782805 -73.48675428 312.077229 -80 311 C-85.00230198 308.54432448 -88.49851535 305.0029693 -91 300 C-91.09788267 297.69957253 -91.13077643 295.39625807 -91.1328125 293.09375 C-91.13376923 292.41324585 -91.13472595 291.7327417 -91.13571167 291.03161621 C-91.13639231 289.59252836 -91.13454607 288.15343743 -91.13037109 286.71435547 C-91.12502115 284.50871907 -91.13031991 282.3032863 -91.13671875 280.09765625 C-91.13605795 278.70052038 -91.13477674 277.30338464 -91.1328125 275.90625 C-91.13168457 274.63072266 -91.13055664 273.35519531 -91.12939453 272.04101562 C-91 269 -91 269 -90 267 C-89.77773136 265.23086176 -89.57266127 263.45955629 -89.375 261.6875 C-86.14798807 240.47808102 -76.52493645 219.59653373 -63 203 C-62.35562988 202.20770996 -62.35562988 202.20770996 -61.69824219 201.39941406 C-49.28126102 186.21536911 -33.74974163 169.9211054 -14.9140625 162.83984375 C-10.63846337 160.14037031 -9.35117881 156.60222798 -7.375 152.0625 C-6.98820068 151.20873779 -6.60140137 150.35497559 -6.20288086 149.4753418 C-3.3678021 143.11488856 -0.89233145 136.70726371 1 130 C1.21140625 129.30132812 1.4228125 128.60265625 1.640625 127.8828125 C5.96312936 112.50704698 6.20850655 91.08960497 0.95703125 76.00390625 C-1.23457516 69.12494571 -0.94833581 62.16695596 2.125 55.625 C4.52767787 51.35663244 7.3411646 48.23338942 11 45 C9.20738311 40.03652309 6.47294425 35.98959003 3.55859375 31.62109375 C2.18759819 29.31548468 1.44913252 27.61481262 1 25 C3.72207026 25.35863129 4.7767101 25.74067799 6.59765625 27.85546875 C7.32275391 29.00982422 7.32275391 29.00982422 8.0625 30.1875 C8.57167969 30.99703125 9.08085937 31.8065625 9.60546875 32.640625 C14 40.07563025 14 40.07563025 14 43 C14.66 43 15.32 43 16 43 C15.566875 41.95199219 15.13375 40.90398437 14.6875 39.82421875 C14.12472665 38.44542404 13.56224165 37.06651161 13 35.6875 C12.71382813 34.99720703 12.42765625 34.30691406 12.1328125 33.59570312 C10.91089256 30.58454326 10 28.28113016 10 25 C8.68 24.67 7.36 24.34 6 24 C5.06576355 20.98968256 4.95550089 20.13349732 6 17 C5.10127934 14.40787 4.14819292 11.94861031 3.0625 9.4375 C0 2.21923503 0 2.21923503 0 0 Z " fill="#FCFCFC" transform="translate(409,111)"/>
<path d="M0 0 C19.47 0 38.94 0 59 0 C61.96338888 7.11213332 64.63451467 13.77888402 66.98144531 21.03393555 C67.96868217 23.90880146 69.09257699 26.66697556 70.296875 29.45703125 C73.23541882 36.43553345 75.74980855 43.5424918 78.25 50.6875 C79.1268969 53.19260338 80.00768801 55.69622617 80.890625 58.19921875 C81.46345215 59.83636841 81.46345215 59.83636841 82.04785156 61.5065918 C82.76953751 63.90564676 82.76953751 63.90564676 84 65 C87.27106307 56.02720689 90.50628166 47.04176278 93.73242188 38.05273438 C95.78144276 32.35247694 97.86430122 26.66829357 100 21 C100.95295602 18.36940656 101.89778194 15.73607303 102.83984375 13.1015625 C104.48427387 8.70534192 106.25680017 4.35799956 108 0 C127.47 0 146.94 0 167 0 C167 46.53 167 93.06 167 141 C152.81 141 138.62 141 124 141 C123.67 114.6 123.34 88.2 123 61 C117.34581812 76.40504687 117.34581812 76.40504687 111.69287109 91.81054688 C107.91760892 102.09476314 104.13199929 112.37401123 100.25756836 122.62133789 C98.4322172 127.52544093 96.70192901 132.46080572 94.98046875 137.40234375 C94 140 94 140 93 141 C91.58429877 141.08651611 90.164405 141.10704904 88.74609375 141.09765625 C87.89208984 141.09443359 87.03808594 141.09121094 86.15820312 141.08789062 C85.26037109 141.07951172 84.36253906 141.07113281 83.4375 141.0625 C82.53580078 141.05798828 81.63410156 141.05347656 80.70507812 141.04882812 C78.46998686 141.03700225 76.23502563 141.0205222 74 141 C64 114.33333333 54 87.66666667 44 61 C43.67 87.4 43.34 113.8 43 141 C28.81 141 14.62 141 0 141 C0 94.47 0 47.94 0 0 Z " fill="#FBFBFB" transform="translate(62,557)"/>
<path d="M0 0 C2.01276143 0.06955465 4.02552287 0.13910929 6.0382843 0.20866394 C6.04415054 1.25356491 6.05001678 2.29846588 6.05606079 3.37503052 C6.11340111 13.24690903 6.18622155 23.11856965 6.27399921 32.99022579 C6.31862901 38.06473118 6.35790135 43.13915764 6.38471985 48.21379089 C6.41082664 53.11579146 6.45128097 58.01748712 6.50147057 62.91929817 C6.51808951 64.78464005 6.52963463 66.6500346 6.53589821 68.51543999 C6.54559366 71.13868157 6.57371684 73.76115181 6.60591125 76.38420105 C6.60447617 77.14665634 6.60304108 77.90911163 6.6015625 78.69467163 C6.72113274 85.63320323 8.42644529 91.6199528 12.1007843 97.52116394 C19.0481443 103.87725926 26.56706228 104.83411939 35.76875305 104.52507019 C43.26370504 103.79975226 49.1111667 101.00433888 54.0382843 95.20866394 C56.82150437 89.40777687 57.4824648 83.64257411 57.47065735 77.29240417 C57.480849 76.45228287 57.49104065 75.61216156 57.50154114 74.74658203 C57.53144112 72.00340406 57.54090153 69.26057655 57.55000305 66.51725769 C57.56686683 64.60196798 57.58501934 62.68668923 57.60440063 60.77142334 C57.65172224 55.75576704 57.68164673 50.74015517 57.70783997 45.72434998 C57.74300169 39.69267926 57.79996334 33.66117905 57.85323334 27.6296463 C57.93153787 18.48934106 57.9823018 9.34925584 58.0382843 0.20866394 C72.5582843 0.20866394 87.0782843 0.20866394 102.0382843 0.20866394 C102.15861073 22.10807384 102.15861073 22.10807384 102.18476868 31.51725769 C102.20263043 37.91170314 102.22365111 44.30601845 102.26460266 50.70036316 C102.29744616 55.86159049 102.31518951 61.02267806 102.32291603 66.18400192 C102.32841503 68.14296032 102.3391518 70.10191197 102.35547447 72.06081009 C102.52281195 92.99538793 99.94199737 111.39413828 85.0382843 127.20866394 C78.88910283 132.66280449 71.70353395 136.34775995 64.0382843 139.20866394 C63.00574524 139.60311707 61.97320618 139.99757019 60.90937805 140.40397644 C39.71934881 147.05638957 12.6184613 145.45500735 -7.3367157 136.02116394 C-20.6512446 128.92412576 -29.7980302 118.30180473 -34.9617157 104.20866394 C-38.30450704 92.33789019 -38.77490206 80.23366867 -38.95707703 67.96598816 C-39.00185346 65.79359857 -39.07709297 63.6216246 -39.18266296 61.45133972 C-40.14464598 41.48003028 -40.14464598 41.48003028 -33.05740356 33.37931824 C-30.65908675 30.97037305 -28.17651869 28.72224626 -25.55540466 26.55873108 C-23.57657184 24.88239571 -21.91843747 23.02248593 -20.2742157 21.02116394 C-16.89961767 17.09561113 -13.39032696 13.29883844 -9.86723328 9.50675964 C-7.72873331 7.19252423 -5.83256863 5.00682002 -4.12968445 2.34538269 C-1.9617157 0.20866394 -1.9617157 0.20866394 0 0 Z " fill="#DA1F21" transform="translate(429.9617156982422,569.7913360595703)"/>
<path d="M0 0 C17.82 0 35.64 0 54 0 C56.96013637 7.10432729 59.62918772 13.76094195 61.97265625 21.0078125 C63.00907725 24.02643793 64.18750727 26.93888 65.4375 29.875 C69.55042823 39.53911971 72.8885793 49.48367188 76.10546875 59.4765625 C76.91423215 61.98743089 76.91423215 61.98743089 78.17578125 64.0859375 C79 66 79 66 78.9140625 67.953125 C77.61536492 70.86131958 75.67977823 72.56359407 73.375 74.75 C69.70238646 78.31352601 66.23617089 81.92040563 62.91015625 85.8046875 C60.49166615 88.58422008 57.9971931 91.291451 55.5 94 C51.90457748 97.90415397 48.36408691 101.84634619 44.890625 105.859375 C41.92237177 109.22012452 38.87221982 112.50605837 35.81835938 115.7890625 C33.04037625 118.78673949 33.04037625 118.78673949 30.73413086 122.14648438 C29 124 29 124 26.1809082 124.45410156 C25.06546631 124.4331543 23.95002441 124.41220703 22.80078125 124.390625 C21.59228516 124.37773438 20.38378906 124.36484375 19.13867188 124.3515625 C17.87603516 124.31804687 16.61339844 124.28453125 15.3125 124.25 C14.03826172 124.23195313 12.76402344 124.21390625 11.45117188 124.1953125 C8.30003159 124.14810441 5.1503886 124.08226384 2 124 C1.70996094 124.97839844 1.70996094 124.97839844 1.4140625 125.9765625 C1.15367187 126.85054687 0.89328125 127.72453125 0.625 128.625 C0.24214844 129.91277344 0.24214844 129.91277344 -0.1484375 131.2265625 C-1.05102687 134.16618844 -2.02757683 137.08273048 -3 140 C-18.84 140 -34.68 140 -51 140 C-50.23952275 135.43713653 -49.41461516 132.02643123 -47.8203125 127.7890625 C-47.38589844 126.62632812 -46.95148438 125.46359375 -46.50390625 124.265625 C-46.04886719 123.06421875 -45.59382812 121.8628125 -45.125 120.625 C-44.67769531 119.43132812 -44.23039063 118.23765625 -43.76953125 117.0078125 C-42.51786175 113.67002716 -41.26020139 110.33457183 -40 107 C-37.61510574 100.68510737 -35.29989737 94.34633334 -33 88 C-30.70012218 81.65372059 -28.38642329 75.31428457 -26 69 C-22.64864076 60.1195857 -19.33667582 51.23168686 -16.17578125 42.28125 C-14.82284471 38.50561315 -13.41619204 34.75225762 -12 31 C-11.02019822 28.39607202 -10.041216 25.79183626 -9.0625 23.1875 C-8.80307617 22.4975293 -8.54365234 21.80755859 -8.27636719 21.09667969 C-6.42387369 16.15899255 -4.61946867 11.20586764 -2.859375 6.234375 C-2 4 -2 4 0 0 Z " fill="#FCFCFC" transform="translate(287,558)"/>
<path d="M0 0 C12.80402325 -0.59478386 25.22040821 1.20454744 37.875 2.9375 C39.02459198 3.09272125 40.17418396 3.2479425 41.35861206 3.40786743 C206.19031136 25.70722325 206.19031136 25.70722325 272 53 C272 53.99 272 54.98 272 56 C273.485 55.6596875 273.485 55.6596875 275 55.3125 C279.61009705 54.6148575 282.79933553 56.1576033 287 58 C287.66 57.34 288.32 56.68 289 56 C291.625 56.375 291.625 56.375 294 57 C294.06380859 57.61101562 294.12761719 58.22203125 294.19335938 58.8515625 C294.81685859 61.18559527 294.81685859 61.18559527 297.10351562 62.2734375 C298.02841797 62.63695312 298.95332031 63.00046875 299.90625 63.375 C300.94789307 63.796604 301.98953613 64.21820801 303.06274414 64.65258789 C304.19703857 65.09723389 305.33133301 65.54187988 306.5 66 C308.88607094 66.97308116 311.27014075 67.95108148 313.65234375 68.93359375 C314.26283066 69.18459335 314.87331757 69.43559296 315.50230408 69.69419861 C331.96738131 76.50400929 347.93603802 84.47894681 363 94 C364.07121094 94.67546875 365.14242188 95.3509375 366.24609375 96.046875 C377.57581488 103.41340369 388.1945008 111.69734691 398 121 C398.49999512 121.46744629 398.99999023 121.93489258 399.51513672 122.41650391 C421.20066778 142.79655149 436.85584406 169.51282368 438.28515625 199.86328125 C438.58299297 210.85026529 437.54571471 221.31659349 435 232 C434.83902832 232.68094727 434.67805664 233.36189453 434.51220703 234.06347656 C428.41802382 258.87341744 415.37528945 281.79163677 400 302 C399.34281982 302.87132568 399.34281982 302.87132568 398.67236328 303.76025391 C392.96034987 311.302909 386.9420868 318.44148098 380.47265625 325.34375 C378.48316736 327.48095766 376.57155725 329.64624054 374.6875 331.875 C366.85689076 340.89722368 358.13025245 349.30796431 349 357 C347.83600754 358.01421274 346.67338286 359.02999623 345.51171875 360.046875 C344.23712879 361.1564219 342.962388 362.26579556 341.6875 363.375 C341.07583984 363.91205566 340.46417969 364.44911133 339.83398438 365.00244141 C337.24471301 367.24039376 335.27967846 368.90677385 332 370 C333.56311402 366.26925273 335.88318394 363.88396031 338.6875 361 C356.81067856 341.73707556 371.87144526 318.43540693 384 295 C384.3201709 294.39091797 384.6403418 293.78183594 384.97021484 293.15429688 C402.06388499 260.26013781 409.16951616 220.78114466 398.35058594 184.84277344 C391.27225435 162.68048633 378.0027283 144.60189442 362 128 C361.34902344 127.29746094 360.69804688 126.59492188 360.02734375 125.87109375 C343.17950613 108.16476758 320.42374305 94.42740587 299.1015625 82.8671875 C298.01617187 82.27164063 296.93078125 81.67609375 295.8125 81.0625 C294.42998047 80.33740234 294.42998047 80.33740234 293.01953125 79.59765625 C291 78 291 78 290.19921875 75.30859375 C290.13347656 74.54675781 290.06773437 73.78492187 290 73 C288.90429688 73.26425781 287.80859375 73.52851562 286.6796875 73.80078125 C280.72854027 74.52738998 276.31429882 71.81078415 271.125 69.1875 C268.9664843 68.15139923 266.80491836 67.12163334 264.640625 66.09765625 C263.53525391 65.57445801 262.42988281 65.05125977 261.29101562 64.51220703 C251.75309788 60.12957628 241.86787053 56.56041267 232 53 C231.30994873 52.75100952 230.61989746 52.50201904 229.90893555 52.2454834 C206.22504357 43.72833548 182.36527424 36.30255701 158 30 C157.26624146 29.80919861 156.53248291 29.61839722 155.77648926 29.42181396 C104.52912267 16.11631536 52.48623158 7.64150265 0 1 C0 0.67 0 0.34 0 0 Z " fill="#EAEAEB" transform="translate(195,47)"/>
<path d="M0 0 C8.8275 -0.020625 17.655 -0.04125 26.75 -0.0625 C29.51213867 -0.071604 32.27427734 -0.08070801 35.12011719 -0.09008789 C37.34570263 -0.09301255 39.57128862 -0.0955598 41.796875 -0.09765625 C42.92303223 -0.10277222 44.04918945 -0.10788818 45.20947266 -0.11315918 C63.73668386 -0.1151669 78.08126301 2.24308947 92.32421875 15.09765625 C104.12513748 27.48300143 106.79778756 41.91697306 106.4375 58.36328125 C105.77614881 70.62514569 100.43122593 82.07538047 92 91 C88.51750361 94.00460638 84.90235563 96.57110018 81 99 C80.33226562 99.42023438 79.66453125 99.84046875 78.9765625 100.2734375 C68.79733588 105.9858305 56.98485189 106.43507583 45.60546875 106.29296875 C44.4390686 106.28994751 43.27266846 106.28692627 42.07092285 106.28381348 C37.7763566 106.2682955 33.48191798 106.22641389 29.1875 106.1875 C19.555625 106.125625 9.92375 106.06375 0 106 C0 71.02 0 36.04 0 0 Z " fill="#FDFDFD" transform="translate(349,440)"/>
<path d="M0 0 C15.36801715 -0.02254748 30.73602687 -0.04097944 46.10405636 -0.05181217 C53.23921741 -0.05697501 60.37436748 -0.06401748 67.50952148 -0.07543945 C74.38889737 -0.08644675 81.26826181 -0.09227617 88.14764595 -0.09487724 C90.77881615 -0.09673206 93.40998569 -0.10035373 96.04115105 -0.10573006 C99.7122625 -0.11293635 103.38332603 -0.11399112 107.05444336 -0.11352539 C108.70413116 -0.1189183 108.70413116 -0.1189183 110.387146 -0.12442017 C111.87851326 -0.12235817 111.87851326 -0.12235817 113.40000916 -0.12025452 C114.26925994 -0.12117631 115.13851072 -0.1220981 116.03410244 -0.12304783 C118 0 118 0 119 1 C119.08857875 3.73870242 119.11530707 6.45274983 119.09765625 9.19140625 C119.09664917 9.91775269 119.09564209 10.64409912 119.09460449 11.39245605 C119.08935716 14.11582001 119.075396 16.83916153 119.0625 19.5625 C119.041875 25.646875 119.02125 31.73125 119 38 C106.46 38 93.92 38 81 38 C81 71.99 81 105.98 81 141 C66.81 141 52.62 141 38 141 C38 107.01 38 73.02 38 38 C25.46 38 12.92 38 0 38 C0 25.46 0 12.92 0 0 Z " fill="#DC1F21" transform="translate(545,570)"/>
<path d="M0 0 C27.06 0 54.12 0 82 0 C82 9.57 82 19.14 82 29 C65.83 29 49.66 29 33 29 C33 32.3 33 35.6 33 39 C48.84 39 64.68 39 81 39 C81 48.57 81 58.14 81 68 C65.16 68 49.32 68 33 68 C33 71.63 33 75.26 33 79 C49.17 79 65.34 79 82 79 C82 88.57 82 98.14 82 108 C54.94 108 27.88 108 0 108 C0 72.36 0 36.72 0 0 Z " fill="#DC2022" transform="translate(581,452)"/>
<path d="M0 0 C27.06 0 54.12 0 82 0 C82 9.57 82 19.14 82 29 C65.83 29 49.66 29 33 29 C33 32.3 33 35.6 33 39 C48.84 39 64.68 39 81 39 C81 48.57 81 58.14 81 68 C65.16 68 49.32 68 33 68 C33 71.63 33 75.26 33 79 C49.17 79 65.34 79 82 79 C82 88.57 82 98.14 82 108 C54.94 108 27.88 108 0 108 C0 72.36 0 36.72 0 0 Z " fill="#F7F7F7" transform="translate(256,439)"/>
<path d="M0 0 C27.06 0 54.12 0 82 0 C82 9.57 82 19.14 82 29 C65.83 29 49.66 29 33 29 C33 32.3 33 35.6 33 39 C48.84 39 64.68 39 81 39 C81 48.57 81 58.14 81 68 C65.16 68 49.32 68 33 68 C33 71.63 33 75.26 33 79 C49.17 79 65.34 79 82 79 C82 88.57 82 98.14 82 108 C54.94 108 27.88 108 0 108 C0 72.36 0 36.72 0 0 Z " fill="#F7F7F7" transform="translate(164,439)"/>
<path d="M0 0 C0.79857422 0.63615234 0.79857422 0.63615234 1.61328125 1.28515625 C1.25914461 6.69094792 -1.92678613 9.87619668 -5.26171875 13.84765625 C-6.34281824 15.16115362 -7.4235581 16.47494709 -8.50390625 17.7890625 C-9.00760742 18.39637207 -9.51130859 19.00368164 -10.03027344 19.62939453 C-11.54078512 21.47321927 -12.98421594 23.35794085 -14.38671875 25.28515625 C-17.89790027 23.91864236 -21.29621008 22.4004773 -24.69921875 20.78515625 C-33.76323412 16.69367661 -41.37076099 15.67511916 -51.38671875 16.28515625 C-52.37671875 16.78015625 -52.37671875 16.78015625 -53.38671875 17.28515625 C-53.38671875 18.60515625 -53.38671875 19.92515625 -53.38671875 21.28515625 C-47.83832077 23.36580549 -42.40700201 24.71374612 -36.57421875 25.72265625 C-23.32260474 28.0670776 -7.77119705 31.87642583 0.61328125 43.28515625 C4.19298942 48.98007164 5.33015007 53.84710612 5.23828125 60.53515625 C5.23062744 61.36563477 5.22297363 62.19611328 5.21508789 63.05175781 C4.88533409 72.2562678 1.55967736 79.26830121 -4.51171875 86.16015625 C-15.2418442 95.8910239 -28.05613111 97.62545388 -41.88671875 97.53515625 C-43.07136719 97.54289063 -44.25601563 97.550625 -45.4765625 97.55859375 C-51.82492318 97.5444391 -57.32118915 97.16547043 -63.38671875 95.28515625 C-64.3715625 95.01316406 -65.35640625 94.74117187 -66.37109375 94.4609375 C-74.93824194 91.78672881 -84.24095468 88.09309019 -90.38671875 81.28515625 C-88.71435457 76.11321517 -85.61801835 71.9889359 -82.51171875 67.59765625 C-81.98191406 66.82615234 -81.45210937 66.05464844 -80.90625 65.25976562 C-80.12701172 64.1527832 -80.12701172 64.1527832 -79.33203125 63.0234375 C-78.62844482 62.018573 -78.62844482 62.018573 -77.91064453 60.9934082 C-76.22592733 59.10491633 -74.70181412 58.26217754 -72.38671875 57.28515625 C-71.78085938 57.7440625 -71.175 58.20296875 -70.55078125 58.67578125 C-61.24894247 65.48758934 -52.52482661 69.39748797 -40.94921875 69.53515625 C-39.65113281 69.5609375 -38.35304687 69.58671875 -37.015625 69.61328125 C-33.22786909 69.27079309 -31.30702425 68.6934236 -28.38671875 66.28515625 C-28.38671875 65.29515625 -28.38671875 64.30515625 -28.38671875 63.28515625 C-33.99878484 60.99335098 -39.14999001 59.6731885 -45.13671875 58.84765625 C-59.77444829 56.59708468 -73.92045372 52.40112075 -83.38671875 40.28515625 C-88.39651064 32.1707046 -88.75553024 22.70315978 -86.796875 13.51953125 C-83.72792616 4.52482405 -76.65371934 -3.1123015 -68.4296875 -7.7578125 C-46.87623192 -17.85455555 -19.09129959 -13.71698939 0 0 Z " fill="#FBFBFB" transform="translate(152.38671875,450.71484375)"/>
<path d="M0 0 C10.89 0 21.78 0 33 0 C33 35.64 33 71.28 33 108 C22.11 108 11.22 108 0 108 C0 94.47 0 80.94 0 67 C-12.54 67 -25.08 67 -38 67 C-38 80.53 -38 94.06 -38 108 C-48.89 108 -59.78 108 -71 108 C-73.02412588 79.78874558 -73.02412588 79.78874558 -67.68359375 72.50390625 C-64.44062338 68.88624548 -60.84686595 65.77322141 -57.05493164 62.74584961 C-53.64049449 59.84497755 -50.8827254 56.41412925 -48 53 C-47.00044189 51.89341978 -45.99431144 50.7927265 -44.98046875 49.69921875 C-44.2834082 48.94608398 -44.2834082 48.94608398 -43.57226562 48.17773438 C-42.63029883 47.16402398 -41.68756101 46.15102961 -40.74414062 45.13867188 C-38.61359177 42.83432297 -36.7460552 40.6190828 -35 38 C-32.30668033 37.73334415 -29.83968096 37.65162415 -27.1484375 37.70703125 C-26.46241455 37.71005249 -25.7763916 37.71307373 -25.06958008 37.71618652 C-22.50456723 37.73189415 -19.93976866 37.77377832 -17.375 37.8125 C-8.774375 37.9053125 -8.774375 37.9053125 0 38 C0 25.46 0 12.92 0 0 Z " fill="#D42022" transform="translate(535,452)"/>
<path d="M0 0 C9.42038965 5.5766622 15.64321651 12.91939802 18.984375 23.4140625 C20.85305973 33.39283895 19.32936749 42.1297077 14.01953125 50.68359375 C8.5631116 58.42205486 1.82624783 64.47722371 -7.625 66.5 C-13.62047798 66.94253915 -19.6243088 66.73532122 -25.625 66.5 C-25.625 65.84 -25.625 65.18 -25.625 64.5 C-26.45 64.45875 -27.275 64.4175 -28.125 64.375 C-35.5587754 62.51655615 -41.28570547 56.64196882 -45.625 50.5 C-50.94344599 41.44334916 -52.205561 32.12513886 -50.046875 21.7109375 C-46.73633056 12.23074204 -39.10186394 4.61810653 -30.625 -0.5 C-21.30394141 -4.3212246 -9.11518229 -4.27855495 0 0 Z " fill="#FCFCFC" transform="translate(711.625,639.5)"/>
<path d="M0 0 C0.22248917 0.61148895 0.44497833 1.22297791 0.67420959 1.85299683 C3.02482475 8.31220403 5.37823541 14.77038801 7.7331543 21.22802734 C8.60754585 23.62686316 9.48126288 26.02594498 10.35424805 28.42529297 C16.99007792 46.68907557 16.99007792 46.68907557 24.01686096 64.80490112 C26 69.79434011 26 69.79434011 26 72 C9.83 72 -6.34 72 -23 72 C-25.475 64.575 -25.475 64.575 -28 57 C-39.385 56.505 -39.385 56.505 -51 56 C-48.96751773 51.93503547 -46.52161201 49.1194992 -43.4375 45.875 C-42.34585151 44.71010626 -41.25470997 43.54473726 -40.1640625 42.37890625 C-39.62555664 41.80543457 -39.08705078 41.23196289 -38.53222656 40.64111328 C-34.9609498 36.81604598 -31.49108681 32.89806232 -28 29 C-26.50043381 27.332943 -25.00042947 25.66628005 -23.5 24 C-22.38818359 22.76443359 -22.38818359 22.76443359 -21.25390625 21.50390625 C-19.74145985 19.82370149 -18.22843141 18.14402049 -16.71484375 16.46484375 C-15.96332031 15.63082031 -15.21179688 14.79679688 -14.4375 13.9375 C-13.33535156 12.71740234 -13.33535156 12.71740234 -12.2109375 11.47265625 C-10.70178932 9.78486332 -9.20755273 8.08364774 -7.7265625 6.37109375 C-7.01242187 5.54738281 -6.29828125 4.72367188 -5.5625 3.875 C-4.60537109 2.75738281 -4.60537109 2.75738281 -3.62890625 1.6171875 C-2 0 -2 0 0 0 Z " fill="#CD2123" transform="translate(368,639)"/>
<path d="M0 0 C10.89 0 21.78 0 33 0 C33 12.54 33 25.08 33 38 C34.32 38 35.64 38 37 38 C37 38.66 37 39.32 37 40 C36.319375 40.53625 35.63875 41.0725 34.9375 41.625 C31.9122015 44.07098602 29.59630101 46.65639143 27.078125 49.6015625 C24.64615376 52.40838645 22.14132345 55.14413326 19.625 57.875 C16.07204076 61.73983691 12.52399824 65.60867947 9 69.5 C8.29875 70.2734375 7.5975 71.046875 6.875 71.84375 C4.96999826 73.96436245 4.96999826 73.96436245 3.375 76.28125 C2.92125 76.8484375 2.4675 77.415625 2 78 C1.34 78 0.68 78 0 78 C0 52.26 0 26.52 0 0 Z " fill="#F7F7F7" transform="translate(463,439)"/>
<path d="M0 0 C27.03777336 0 27.03777336 0 34.4375 5.96484375 C34.953125 6.61582031 35.46875 7.26679688 36 7.9375 C36.53625 8.58589844 37.0725 9.23429687 37.625 9.90234375 C41.99475364 16.56870087 41.89043551 23.81928428 40.5703125 31.5 C38.758115 37.9433689 34.92954344 43.58374882 29.1640625 47.12890625 C19.69385759 51.40910803 10.55349286 50 0 50 C0 33.5 0 17 0 0 Z " fill="#020202" transform="translate(381,468)"/>
<path d="M0 0 C11.55 0 23.1 0 35 0 C28.50606148 7.57626161 21.97031791 15.0745654 15.20849609 22.41210938 C11.34524358 26.60718316 7.54968116 30.85958393 3.77734375 35.13671875 C2 37 2 37 0 38 C0 25.46 0 12.92 0 0 Z " fill="#FCFCFC" transform="translate(392,558)"/>
<path d="M0 0 C0.66 0 1.32 0 2 0 C2.30292969 1.12535156 2.60585938 2.25070312 2.91796875 3.41015625 C5.28296852 12.1059612 7.79395726 20.67680483 10.7890625 29.1796875 C12.43795 34.38166162 13.67647163 39.70588654 15 45 C5.76 45 -3.48 45 -13 45 C-12.01 41.7 -11.02 38.4 -10 35 C-9.49503671 33.26185091 -8.9937545 31.52261632 -8.5 29.78125 C-8.2525 28.91113281 -8.005 28.04101562 -7.75 27.14453125 C-7.5025 26.27183594 -7.255 25.39914062 -7 24.5 C-5.26632473 18.38698877 -3.50032827 12.28736779 -1.6484375 6.20898438 C-1.04394839 4.14971573 -0.50421218 2.08582112 0 0 Z " fill="#0B0B0B" transform="translate(313,600)"/>
<path d="M0 0 C0 0.66 0 1.32 0 2 C14.48325088 1.79349416 14.48325088 1.79349416 28 -3 C30.95708358 -4.47854179 32.89544685 -3.52005822 36.0625 -2.75 C37.14660156 -2.49734375 38.23070312 -2.2446875 39.34765625 -1.984375 C40.66056641 -1.49710938 40.66056641 -1.49710938 42 -1 C42.495 0.485 42.495 0.485 43 2 C25.84429953 6.83644747 8.32980605 6.90989784 -9.3125 5.125 C-10.10664307 5.04660889 -10.90078613 4.96821777 -11.71899414 4.88745117 C-15.78954275 4.43069139 -19.25534622 3.77889741 -23 2 C-22.67 1.01 -22.34 0.02 -22 -1 C-13.88254574 -4.73108688 -7.67620661 -4.26267225 0 0 Z " fill="#C04647" transform="translate(686,704)"/>
<path d="M0 0 C13.55020384 -0.7367431 26.80309553 1.46813036 40.1875 3.3125 C42.51616974 3.62514172 44.84494538 3.93699579 47.17382812 4.24804688 C60.14480179 5.99265263 73.08447266 7.88355295 86 10 C85.67 10.99 85.34 11.98 85 13 C78.67160846 12.33655564 72.39919317 11.49519317 66.11328125 10.51171875 C64.19874838 10.21611121 62.28419687 9.92062432 60.36962891 9.62524414 C59.37940735 9.47185577 58.38918579 9.31846741 57.36895752 9.16043091 C38.27347537 6.20575424 19.17040315 3.42578443 0 1 C0 0.67 0 0.34 0 0 Z " fill="#DDDEDE" transform="translate(195,47)"/>
<path d="M0 0 C3.02030247 0.62033431 5.25833037 1.59700154 7.87109375 3.22265625 C8.60473145 3.67535889 9.33836914 4.12806152 10.09423828 4.59448242 C10.86751465 5.07892822 11.64079102 5.56337402 12.4375 6.0625 C13.23140137 6.55403564 14.02530273 7.04557129 14.84326172 7.55200195 C16.4575187 8.55177572 18.07048243 9.55364069 19.68212891 10.55761719 C22.41725812 12.25965462 25.16104264 13.94725256 27.90649414 15.63256836 C30.27293008 17.08524199 32.63645912 18.54262232 35 20 C34.34 21.32 33.68 22.64 33 24 C33 23.34 33 22.68 33 22 C32.34 22 31.68 22 31 22 C30.67 23.65 30.34 25.3 30 27 C28.125 27.625 28.125 27.625 26 28 C25.34 27.34 24.68 26.68 24 26 C24.375 23.5625 24.375 23.5625 25 21 C25 20.01 25 19.02 25 18 C23.19801691 16.50045284 23.19801691 16.50045284 20.80078125 15.1875 C19.92099609 14.66929687 19.04121094 14.15109375 18.13476562 13.6171875 C17.20341797 13.08351562 16.27207031 12.54984375 15.3125 12 C14.40048828 11.46632812 13.48847656 10.93265625 12.54882812 10.3828125 C10.83668058 9.38167314 9.1218571 8.38508645 7.40356445 7.39453125 C6.61038818 6.93433594 5.81721191 6.47414062 5 6 C4.07469482 5.50886719 3.14938965 5.01773438 2.19604492 4.51171875 C1.4713501 4.01285156 0.74665527 3.51398438 0 3 C0 2.01 0 1.02 0 0 Z " fill="#DD5656" transform="translate(377,146)"/>
<path d="M0 0 C0.99 0 1.98 0 3 0 C3.20157715 0.5347998 3.4031543 1.06959961 3.61083984 1.62060547 C4.52666383 4.04088471 5.45072122 6.45793764 6.375 8.875 C6.69210937 9.71675781 7.00921875 10.55851562 7.3359375 11.42578125 C7.6453125 12.23144531 7.9546875 13.03710938 8.2734375 13.8671875 C8.55622559 14.61081543 8.83901367 15.35444336 9.13037109 16.12060547 C9.95391086 18.18377318 9.95391086 18.18377318 12 20 C12.34420809 21.99815713 12.67544172 23.99855726 13 26 C14.26480721 29.65343994 15.6484313 33.24827899 17.0390625 36.85546875 C18 40 18 40 17 43 C14.43320517 40.43320517 13.66651446 37.94989318 12.375 34.5625 C11.92898438 33.40878906 11.48296875 32.25507813 11.0234375 31.06640625 C10 28 10 28 10 25 C8.68 24.67 7.36 24.34 6 24 C5.06576355 20.98968256 4.95550089 20.13349732 6 17 C5.10127934 14.40787 4.14819292 11.94861031 3.0625 9.4375 C0 2.21923503 0 2.21923503 0 0 Z " fill="#DB5E5E" transform="translate(409,111)"/>
<path d="M0 0 C0 0.66 0 1.32 0 2 C5.28 2 10.56 2 16 2 C16 2.33 16 2.66 16 3 C4.80355382 4.50721391 -9.17241549 5.97748002 -20 2 C-20.33 1.34 -20.66 0.68 -21 0 C-13.85956985 -2.92940724 -7.14043015 -2.92940724 0 0 Z " fill="#E12D2F" transform="translate(686,704)"/>
<path d="M0 0 C1.77226453 0.28284018 3.542788 0.57660498 5.3125 0.875 C6.29863281 1.03742187 7.28476562 1.19984375 8.30078125 1.3671875 C11 2 11 2 14 4 C14 4.66 14 5.32 14 6 C7.00221251 9.49889374 -3.37057221 8.11983394 -11 8 C-8.78288329 6.26404479 -7.02573597 5.00980418 -4.375 4 C-1.68440435 3.12416419 -1.68440435 3.12416419 0 0 Z " fill="#D82A2C" transform="translate(715,700)"/>
<path d="M0 0 C0.66 0 1.32 0 2 0 C2.67429967 3.39436356 3.3380828 6.79070193 4 10.1875 C4.28617187 11.62706055 4.28617187 11.62706055 4.578125 13.09570312 C4.84882813 14.49272461 4.84882813 14.49272461 5.125 15.91796875 C5.29257812 16.77156982 5.46015625 17.6251709 5.6328125 18.50463867 C6.00595229 21.04045103 6.06412996 23.44081397 6 26 C7.98 26 9.96 26 12 26 C12 26.33 12 26.66 12 27 C6.78020872 27.1799928 2.92737019 26.97094808 -2 25 C-1.67 23.35 -1.34 21.7 -1 20 C-0.01 20 0.98 20 2 20 C1.855625 18.741875 1.71125 17.48375 1.5625 16.1875 C0.96183814 10.79870505 0.47449461 5.40116209 0 0 Z " fill="#C85757" transform="translate(429,125)"/>
<path d="M0 0 C5.01113235 1.4317521 6.94469549 3.98445693 10 8 C8.35 9.65 6.7 11.3 5 13 C5 12.34 5 11.68 5 11 C4.401875 10.731875 3.80375 10.46375 3.1875 10.1875 C0.92426639 8.95888747 -0.51540577 8.10968654 -2 6 C-1.57894737 1.57894737 -1.57894737 1.57894737 0 0 Z " fill="#CD5C5C" transform="translate(408,151)"/>
<path d="M0 0 C2.72207026 0.35863129 3.7767101 0.74067799 5.59765625 2.85546875 C6.08105469 3.62503906 6.56445312 4.39460937 7.0625 5.1875 C7.82626953 6.40179688 7.82626953 6.40179688 8.60546875 7.640625 C13 15.07563025 13 15.07563025 13 18 C13.66 18.33 14.32 18.66 15 19 C13.68 19.33 12.36 19.66 11 20 C0 2.91292135 0 2.91292135 0 0 Z " fill="#D05B5B" transform="translate(410,136)"/>
<path d="M0 0 C0.99 0 1.98 0 3 0 C3.20157715 0.5347998 3.4031543 1.06959961 3.61083984 1.62060547 C4.52666383 4.04088471 5.45072122 6.45793764 6.375 8.875 C6.69210937 9.71675781 7.00921875 10.55851562 7.3359375 11.42578125 C7.6453125 12.23144531 7.9546875 13.03710938 8.2734375 13.8671875 C8.55622559 14.61081543 8.83901367 15.35444336 9.13037109 16.12060547 C9.95391086 18.18377318 9.95391086 18.18377318 12 20 C11.67 20.99 11.34 21.98 11 23 C10.01 22.01 9.02 21.02 8 20 C7.01 20.99 6.02 21.98 5 23 C5.22558594 22.16984375 5.45117188 21.3396875 5.68359375 20.484375 C6.07784696 16.14272237 4.80086574 13.1223333 3.0625 9.25 C0 2.17433481 0 2.17433481 0 0 Z " fill="#D65A5A" transform="translate(409,111)"/>
<path d="M0 0 C1.2684375 0.12375 1.2684375 0.12375 2.5625 0.25 C4.5625 3.25 4.5625 3.25 4.5 5.3125 C3.5625 7.25 3.5625 7.25 1 8.5 C0.195625 8.7475 -0.60875 8.995 -1.4375 9.25 C-3 8.0625 -3 8.0625 -4.4375 6.25 C-3.88016338 0.39796547 -3.88016338 0.39796547 0 0 Z " fill="#DF4444" transform="translate(475.4375,86.75)"/>
<path d="M0 0 C3.23495393 0.96174306 4.77726248 1.72696691 6.9375 4.375 C8 7 8 7 7.1875 9.3125 C6.795625 9.869375 6.40375 10.42625 6 11 C2.2047869 9.50902342 0.38957269 7.24299151 -2 4 C-1.34 2.68 -0.68 1.36 0 0 Z " fill="#020101" transform="translate(413,147)"/>
<path d="M0 0 C10.52670777 -0.30028643 20.58696894 0.58806359 31 2 C30.67 2.66 30.34 3.32 30 4 C19.88873728 3.50100262 10.00494828 2.61017136 0 1 C0 0.67 0 0.34 0 0 Z " fill="#B5B6B6" transform="translate(195,47)"/>
<path d="M0 0 C3.99500618 1.3697164 6.80009492 3.25722422 10 6 C9.67 7.32 9.34 8.64 9 10 C5.40608886 8.66511872 2.24509304 7.03977277 -1 5 C-0.67 3.35 -0.34 1.7 0 0 Z " fill="#361616" transform="translate(403,156)"/>
<path d="M0 0 C2.6875 0.3125 2.6875 0.3125 5 1 C5.625 3.375 5.625 3.375 6 6 C4 8 4 8 1.375 8.125 C0.59125 8.08375 -0.1925 8.0425 -1 8 C-1.66 6.35 -2.32 4.7 -3 3 C-1.8125 1.4375 -1.8125 1.4375 0 0 Z " fill="#DC5858" transform="translate(468,72)"/>
<path d="M0 0 C1.4540625 0.0309375 1.4540625 0.0309375 2.9375 0.0625 C2.2775 2.3725 1.6175 4.6825 0.9375 7.0625 C-0.9375 7.6875 -0.9375 7.6875 -3.0625 8.0625 C-3.7225 7.4025 -4.3825 6.7425 -5.0625 6.0625 C-4.33395709 0.0884481 -4.33395709 0.0884481 0 0 Z " fill="#CB4040" transform="translate(406.0625,165.9375)"/>
<path d="M0 0 C2.52108103 0.14224587 5.04180403 0.28870121 7.5625 0.4375 C8.26697266 0.47681641 8.97144531 0.51613281 9.69726562 0.55664062 C14.1798541 0.82518279 18.56293497 1.30616197 23 2 C21 4 21 4 17.98828125 4.01171875 C16.77527344 3.90472656 15.56226563 3.79773437 14.3125 3.6875 C13.05824219 3.57921875 11.80398437 3.4709375 10.51171875 3.359375 C6.983713 2.99833326 3.49739333 2.58289889 0 2 C0 1.34 0 0.68 0 0 Z " fill="#D2D3D3" transform="translate(225,50)"/>
<path d="M0 0 C0.598125 0.20625 1.19625 0.4125 1.8125 0.625 C2.9375 4.375 2.9375 4.375 1.8125 6.625 C0.1625 6.625 -1.4875 6.625 -3.1875 6.625 C-3.8475 4.975 -4.5075 3.325 -5.1875 1.625 C-2.1875 -0.375 -2.1875 -0.375 0 0 Z " fill="#DF3838" transform="translate(484.1875,119.375)"/>
<path d="M0 0 C3.91402949 1.26941497 5.79072873 2.51167694 8 6 C6.02 6.99 6.02 6.99 4 8 C2.35 6.35 0.7 4.7 -1 3 C-0.67 2.01 -0.34 1.02 0 0 Z " fill="#EB3030" transform="translate(408,153)"/>
<path d="M0 0 C3.63 1.98 7.26 3.96 11 6 C10.34 7.32 9.68 8.64 9 10 C9 9.34 9 8.68 9 8 C8.278125 7.731875 7.55625 7.46375 6.8125 7.1875 C4.02409874 6.01017502 1.55904276 4.60854116 -1 3 C-0.67 2.01 -0.34 1.02 0 0 Z " fill="#CF5B5B" transform="translate(401,160)"/>
<path d="M0 0 C1.65 0.33 3.3 0.66 5 1 C4.67 2.65 4.34 4.3 4 6 C2.35 5.67 0.7 5.34 -1 5 C-0.67 3.35 -0.34 1.7 0 0 Z " fill="#E04141" transform="translate(484,103)"/>
<path d="M0 0 C0.99 0.66 1.98 1.32 3 2 C3.6875 5.625 3.6875 5.625 4 9 C3.34 9 2.68 9 2 9 C2 8.01 2 7.02 2 6 C0.68 5.67 -0.64 5.34 -2 5 C-1.125 1.125 -1.125 1.125 0 0 Z " fill="#E74747" transform="translate(417,130)"/>
<path d="M0 0 C2.0625 0.4375 2.0625 0.4375 4 1 C4 2.32 4 3.64 4 5 C2.68 5.33 1.36 5.66 0 6 C-0.38218767 4.34385343 -0.71395102 2.67542976 -1 1 C-0.67 0.67 -0.34 0.34 0 0 Z " fill="#DE4F4F" transform="translate(404,141)"/>
<path d="M0 0 C0.99 0.33 1.98 0.66 3 1 C3.33 1.99 3.66 2.98 4 4 C3.34 4.66 2.68 5.32 2 6 C-0.125 5.625 -0.125 5.625 -2 5 C-2 3.68 -2 2.36 -2 1 C-1.34 0.67 -0.68 0.34 0 0 Z " fill="#EC3131" transform="translate(469,73)"/>
<path d="M0 0 C2.64 0.33 5.28 0.66 8 1 C7.67 1.99 7.34 2.98 7 4 C4.03 3.67 1.06 3.34 -2 3 C-1.34 2.67 -0.68 2.34 0 2 C0 1.34 0 0.68 0 0 Z " fill="#D6D6D7" transform="translate(273,56)"/>
<path d="M0 0 C0.99 0.33 1.98 0.66 3 1 C3 2.32 3 3.64 3 5 C2.01 5.33 1.02 5.66 0 6 C-0.66 5.67 -1.32 5.34 -2 5 C-2 3.68 -2 2.36 -2 1 C-1.34 0.67 -0.68 0.34 0 0 Z " fill="#D14B4B" transform="translate(486,90)"/>
<path d="M0 0 C0.99 0.33 1.98 0.66 3 1 C2.67 2.65 2.34 4.3 2 6 C0.68 5.34 -0.64 4.68 -2 4 C-1.34 2.68 -0.68 1.36 0 0 Z " fill="#D05151" transform="translate(413,147)"/>
<path d="M0 0 C1.32 0.33 2.64 0.66 4 1 C4.66 3.64 5.32 6.28 6 9 C2.91910327 6.22719294 1.31224548 3.93673644 0 0 Z " fill="#E54141" transform="translate(412,138)"/>
<path d="M0 0 C1.95418308 2.93127462 2.64700993 4.55834679 3 8 C2.34 8.66 1.68 9.32 1 10 C-0.83691257 6.21812119 -1.15837626 4.05431692 0 0 Z " fill="#D35959" transform="translate(421,137)"/>
<path d="M0 0 C1.98 0.495 1.98 0.495 4 1 C3.67 2.32 3.34 3.64 3 5 C1.68 4.34 0.36 3.68 -1 3 C-0.67 2.01 -0.34 1.02 0 0 Z " fill="#D84E4E" transform="translate(504,105)"/>
<path d="M0 0 C0.99 0 1.98 0 3 0 C3.66 1.98 4.32 3.96 5 6 C4.01 6.33 3.02 6.66 2 7 C1.34 4.69 0.68 2.38 0 0 Z " fill="#C75858" transform="translate(409,111)"/>
</svg>
